<svg width="1440" height="41" viewBox="0 0 1440 41" fill="none" xmlns="http://www.w3.org/2000/svg">
<path d="M1440 41H0C34.5 40 73 37.5002 137 26.5C164.454 21.7812 175.3 31.1408 211.5 26.5C231 24.0002 243 13 273 21.5002C287 25.4669 310 41 334 26.5C381.962 -2.47686 407.5 16.5002 423 21.5002C448.55 29.7422 472 10 514.5 2.50003C547.531 -3.32889 560.194 23.9993 606.5 17.5002C663.5 9.50017 685.5 -1.49981 734.5 8.00018C783.5 17.5002 796.5 28.5002 824.5 25.0001C878 18.3123 877.5 0 904 0C929 0 984.5 21.5002 1042.5 5.0002C1077.93 -5.08045 1136.53 51.5562 1175.5 25.0572C1205 5.0002 1218 26.046 1233.12 25.0572C1280.5 21.9573 1282 43.0002 1324 27.5002C1362.7 13.2199 1369.5 41 1440 41Z" fill="#271043"/>
</svg>
