<?xml version="1.0" encoding="UTF-8" ?>
<svg version="1.1" width="80" height="80" xmlns="http://www.w3.org/2000/svg" shape-rendering="crispEdges">
<rect x="35" y="5" width="5" height="5" fill="#FFFFFF" />
<rect x="40" y="5" width="5" height="5" fill="#FFFFFF" />
<rect x="35" y="10" width="5" height="5" fill="#FFFFFF" />
<rect x="40" y="10" width="5" height="5" fill="#FFFFFF" />
<rect x="35" y="15" width="5" height="5" fill="#FFFFFF" />
<rect x="40" y="15" width="5" height="5" fill="#FFFFFF" />
<rect x="35" y="20" width="5" height="5" fill="#FFFFFF" />
<rect x="40" y="20" width="5" height="5" fill="#FFFFFF" />
<rect x="35" y="25" width="5" height="5" fill="#FFFFFF" />
<rect x="40" y="25" width="5" height="5" fill="#FFFFFF" />
<rect x="35" y="30" width="5" height="5" fill="#FFFFFF" />
<rect x="40" y="30" width="5" height="5" fill="#FFFFFF" />
<rect x="5" y="35" width="5" height="5" fill="#FFFFFF" />
<rect x="10" y="35" width="5" height="5" fill="#FFFFFF" />
<rect x="15" y="35" width="5" height="5" fill="#FFFFFF" />
<rect x="20" y="35" width="5" height="5" fill="#FFFFFF" />
<rect x="25" y="35" width="5" height="5" fill="#FFFFFF" />
<rect x="30" y="35" width="5" height="5" fill="#FFFFFF" />
<rect x="35" y="35" width="5" height="5" fill="#FFFFFF" />
<rect x="40" y="35" width="5" height="5" fill="#FFFFFF" />
<rect x="45" y="35" width="5" height="5" fill="#FFFFFF" />
<rect x="50" y="35" width="5" height="5" fill="#FFFFFF" />
<rect x="55" y="35" width="5" height="5" fill="#FFFFFF" />
<rect x="60" y="35" width="5" height="5" fill="#FFFFFF" />
<rect x="65" y="35" width="5" height="5" fill="#FFFFFF" />
<rect x="70" y="35" width="5" height="5" fill="#FFFFFF" />
<rect x="5" y="40" width="5" height="5" fill="#FFFFFF" />
<rect x="10" y="40" width="5" height="5" fill="#FFFFFF" />
<rect x="15" y="40" width="5" height="5" fill="#FFFFFF" />
<rect x="20" y="40" width="5" height="5" fill="#FFFFFF" />
<rect x="25" y="40" width="5" height="5" fill="#FFFFFF" />
<rect x="30" y="40" width="5" height="5" fill="#FFFFFF" />
<rect x="35" y="40" width="5" height="5" fill="#FFFFFF" />
<rect x="40" y="40" width="5" height="5" fill="#FFFFFF" />
<rect x="45" y="40" width="5" height="5" fill="#FFFFFF" />
<rect x="50" y="40" width="5" height="5" fill="#FFFFFF" />
<rect x="55" y="40" width="5" height="5" fill="#FFFFFF" />
<rect x="60" y="40" width="5" height="5" fill="#FFFFFF" />
<rect x="65" y="40" width="5" height="5" fill="#FFFFFF" />
<rect x="70" y="40" width="5" height="5" fill="#FFFFFF" />
<rect x="35" y="45" width="5" height="5" fill="#FFFFFF" />
<rect x="40" y="45" width="5" height="5" fill="#FFFFFF" />
<rect x="35" y="50" width="5" height="5" fill="#FFFFFF" />
<rect x="40" y="50" width="5" height="5" fill="#FFFFFF" />
<rect x="35" y="55" width="5" height="5" fill="#FFFFFF" />
<rect x="40" y="55" width="5" height="5" fill="#FFFFFF" />
<rect x="35" y="60" width="5" height="5" fill="#FFFFFF" />
<rect x="40" y="60" width="5" height="5" fill="#FFFFFF" />
<rect x="35" y="65" width="5" height="5" fill="#FFFFFF" />
<rect x="40" y="65" width="5" height="5" fill="#FFFFFF" />
<rect x="35" y="70" width="5" height="5" fill="#FFFFFF" />
<rect x="40" y="70" width="5" height="5" fill="#FFFFFF" />
</svg>